<svg width="17" height="16" viewBox="0 0 17 16" fill="none" xmlns="http://www.w3.org/2000/svg">
<path d="M5.83331 9.33331C8.04245 9.33331 9.83331 7.54245 9.83331 5.33331C9.83331 3.12417 8.04245 1.33331 5.83331 1.33331C3.62417 1.33331 1.83331 3.12417 1.83331 5.33331C1.83331 7.54245 3.62417 9.33331 5.83331 9.33331Z" stroke="#869BDD" stroke-width="1.33333" stroke-linecap="round" stroke-linejoin="round"/>
<path d="M12.56 6.91333C13.1902 7.14828 13.751 7.53835 14.1905 8.04746C14.63 8.55657 14.934 9.16829 15.0745 9.82604C15.2149 10.4838 15.1872 11.1663 14.994 11.8106C14.8008 12.4548 14.4482 13.0399 13.9689 13.5117C13.4896 13.9836 12.8991 14.327 12.252 14.5101C11.6048 14.6933 10.9219 14.7103 10.2664 14.5596C9.61095 14.4089 9.00405 14.0954 8.50186 13.648C7.99967 13.2006 7.6184 12.6338 7.39331 12" stroke="#869BDD" stroke-width="1.33333" stroke-linecap="round" stroke-linejoin="round"/>
<path d="M5.16669 4H5.83335V6.66667" stroke="#869BDD" stroke-width="1.33333" stroke-linecap="round" stroke-linejoin="round"/>
<path d="M11.64 9.25336L12.1067 9.72669L10.2267 11.6067" stroke="#869BDD" stroke-width="1.33333" stroke-linecap="round" stroke-linejoin="round"/>
</svg>
