<svg width="16" height="17" viewBox="0 0 16 17" fill="none" xmlns="http://www.w3.org/2000/svg">
<path d="M5.33333 10.0646C7.54247 10.0646 9.33333 8.27372 9.33333 6.06458C9.33333 3.85544 7.54247 2.06458 5.33333 2.06458C3.12419 2.06458 1.33333 3.85544 1.33333 6.06458C1.33333 8.27372 3.12419 10.0646 5.33333 10.0646Z" stroke="#869BDD" stroke-width="1.33333" stroke-linecap="round" stroke-linejoin="round"/>
<path d="M12.06 7.64458C12.6902 7.87953 13.251 8.2696 13.6905 8.77871C14.13 9.28782 14.434 9.89954 14.5745 10.5573C14.7149 11.215 14.6873 11.8976 14.494 12.5418C14.3008 13.186 13.9482 13.7711 13.469 14.243C12.9897 14.7148 12.3991 15.0582 11.752 15.2414C11.1048 15.4246 10.4219 15.4416 9.76646 15.2909C9.11098 15.1402 8.50408 14.8266 8.00189 14.3792C7.49969 13.9318 7.11842 13.365 6.89333 12.7312" stroke="#869BDD" stroke-width="1.33333" stroke-linecap="round" stroke-linejoin="round"/>
<path d="M4.66667 4.73125H5.33333V7.39791" stroke="#869BDD" stroke-width="1.33333" stroke-linecap="round" stroke-linejoin="round"/>
<path d="M11.14 9.98458L11.6067 10.4579L9.72667 12.3379" stroke="#869BDD" stroke-width="1.33333" stroke-linecap="round" stroke-linejoin="round"/>
</svg>
