<svg width="21" height="20" viewBox="0 0 21 20" fill="none" xmlns="http://www.w3.org/2000/svg">
<path d="M6.33337 4.02503C6.33337 5.31419 7.77171 6.67336 8.95837 7.57503C9.62421 8.08003 9.95671 8.33336 10.5 8.33336C11.0434 8.33336 11.3759 8.08003 12.0417 7.57503C13.2284 6.67253 14.6667 5.31336 14.6667 4.02503C14.6667 1.70003 12.375 0.830861 10.5 2.62753C8.62504 0.830861 6.33337 1.70003 6.33337 4.02503ZM5.71671 17.8234H5.50004C4.71421 17.8234 4.32171 17.8234 4.07754 17.5792C3.83337 17.3367 3.83337 16.9434 3.83337 16.1575V15.2309C3.83337 14.7992 3.83337 14.5834 3.94421 14.39C4.05504 14.1967 4.22254 14.1 4.55754 13.905C6.76254 12.6225 9.89337 11.9009 11.9825 13.1467C12.1231 13.2306 12.2481 13.3328 12.3575 13.4534C12.4697 13.5759 12.5561 13.7197 12.6116 13.8763C12.6672 14.0328 12.6908 14.1989 12.681 14.3647C12.6712 14.5305 12.6282 14.6927 12.5546 14.8416C12.481 14.9906 12.3783 15.1232 12.2525 15.2317C12.1523 15.3268 12.0301 15.3956 11.8967 15.4317C11.9967 15.42 12.0925 15.407 12.1842 15.3925C12.9434 15.2717 13.5809 14.865 14.1642 14.4242L15.6709 13.2867C15.9398 13.0915 16.2636 12.9865 16.5959 12.9865C16.9282 12.9865 17.2519 13.0915 17.5209 13.2867C17.9984 13.6475 18.145 14.2417 17.8425 14.7267C17.49 15.2917 16.9934 16.0142 16.5167 16.4559C16.04 16.8975 15.3284 17.2925 14.7484 17.5725C14.105 17.8834 13.395 18.0617 12.6725 18.1792C11.2075 18.4159 9.68088 18.3792 8.23088 18.0809C7.40364 17.9106 6.56128 17.8238 5.71671 17.8234Z" fill="white"/>
</svg>
